<svg width="20" height="21" viewBox="0 0 20 21" fill="none" xmlns="http://www.w3.org/2000/svg">
<g filter="url(#filter0_d_120_2138)">
<path d="M14.5 7.5H4.5C4.36739 7.5 4.24021 7.55268 4.14645 7.64645C4.05268 7.74021 4 7.86739 4 8C4 8.13261 4.05268 8.25979 4.14645 8.35355C4.24021 8.44732 4.36739 8.5 4.5 8.5H14.5C14.6326 8.5 14.7598 8.44732 14.8536 8.35355C14.9473 8.25979 15 8.13261 15 8C15 7.86739 14.9473 7.74021 14.8536 7.64645C14.7598 7.55268 14.6326 7.5 14.5 7.5Z" fill="white"/>
<path d="M14.293 8.00002L10.146 12.146C10.0521 12.2399 9.99933 12.3672 9.99933 12.5C9.99933 12.6328 10.0521 12.7601 10.146 12.854C10.2398 12.9479 10.3672 13.0007 10.5 13.0007C10.6327 13.0007 10.7601 12.9479 10.854 12.854L15.354 8.35402C15.4005 8.30758 15.4375 8.2524 15.4627 8.19165C15.4879 8.13091 15.5009 8.06579 15.5009 8.00002C15.5009 7.93425 15.4879 7.86913 15.4627 7.80839C15.4375 7.74764 15.4005 7.69247 15.354 7.64602L10.854 3.14602C10.7601 3.05213 10.6327 2.99939 10.5 2.99939C10.3672 2.99939 10.2398 3.05213 10.146 3.14602C10.0521 3.23991 9.99933 3.36725 9.99933 3.50002C9.99933 3.6328 10.0521 3.76013 10.146 3.85402L14.293 8.00002Z" fill="white"/>
</g>
<defs>
<filter id="filter0_d_120_2138" x="-2" y="0" width="24" height="24" filterUnits="userSpaceOnUse" color-interpolation-filters="sRGB">
<feFlood flood-opacity="0" result="BackgroundImageFix"/>
<feColorMatrix in="SourceAlpha" type="matrix" values="0 0 0 0 0 0 0 0 0 0 0 0 0 0 0 0 0 0 127 0" result="hardAlpha"/>
<feOffset dy="4"/>
<feGaussianBlur stdDeviation="2"/>
<feComposite in2="hardAlpha" operator="out"/>
<feColorMatrix type="matrix" values="0 0 0 0 0 0 0 0 0 0 0 0 0 0 0 0 0 0 0.25 0"/>
<feBlend mode="normal" in2="BackgroundImageFix" result="effect1_dropShadow_120_2138"/>
<feBlend mode="normal" in="SourceGraphic" in2="effect1_dropShadow_120_2138" result="shape"/>
</filter>
</defs>
</svg>
